<svg id="Layer_1" enable-background="new 0 0 256 256" height="512" viewBox="0 0 256 256" width="512" xmlns="http://www.w3.org/2000/svg"><path d="m128 252c-48.764 0-88.296-39.531-88.296-88.295v-71.41c0-48.764 39.532-88.295 88.296-88.295 48.764 0 88.295 39.531 88.295 88.295v71.409c.001 48.765-39.531 88.296-88.295 88.296z" fill="#f4efed"/><path d="m128 4c-1.678 0-3.345.051-5 .144 46.438 2.593 83.296 41.066 83.296 88.152v71.409c0 47.086-36.858 85.559-83.296 88.152 1.655.092 3.322.144 5 .144 48.764 0 88.296-39.531 88.296-88.295v-71.411c0-48.764-39.532-88.295-88.296-88.295z" fill="#d6d1cf"/><path d="m128 252c1.678 0 3.345-.051 5-.144-46.438-2.593-83.296-41.066-83.296-88.152v-71.409c0-47.085 36.858-85.558 83.296-88.151-1.655-.093-3.322-.144-5-.144-48.764 0-88.296 39.531-88.296 88.295v71.409c0 48.765 39.532 88.296 88.296 88.296z" fill="#fff"/><path d="m152.298 174.865h-48.596c-18.531 0-33.554 15.023-33.554 33.554v21.957c15.497 13.459 35.715 21.624 57.852 21.624 22.137 0 42.355-8.165 57.852-21.624v-21.957c0-18.531-15.023-33.554-33.554-33.554z" fill="#fcc24c"/><path d="m123.087 251.851c1.628.089 3.263.149 4.913.149 22.137 0 42.355-8.165 57.852-21.624v-10.174c-15.182 18.213-37.558 30.217-62.765 31.649z" fill="#dea42e"/><path d="m132.913 251.851c-1.627.089-3.263.149-4.913.149-22.137 0-42.355-8.165-57.852-21.624v-10.174c15.182 18.213 37.558 30.217 62.765 31.649z" fill="#fce06a"/><path d="m128 99.482c-6.381 0-11.554-5.173-11.554-11.554v-22.765c0-6.381 5.173-11.554 11.554-11.554 6.381 0 11.554 5.173 11.554 11.554v22.766c0 6.381-5.173 11.553-11.554 11.553z" fill="#526faa"/><g fill="#690589"><path d="m128 101.482c-7.474 0-13.554-6.08-13.554-13.554v-22.765c0-7.474 6.08-13.554 13.554-13.554s13.554 6.08 13.554 13.554v22.766c0 7.473-6.08 13.553-13.554 13.553zm0-45.873c-5.268 0-9.554 4.286-9.554 9.554v22.766c0 5.268 4.286 9.554 9.554 9.554s9.554-4.286 9.554-9.554v-22.766c0-5.268-4.286-9.554-9.554-9.554z"/><path d="m128 55.609c-1.104 0-2-.896-2-2v-49.609c0-1.104.896-2 2-2s2 .896 2 2v49.609c0 1.104-.896 2-2 2z"/><path d="m128 254c-21.731 0-42.743-7.854-59.163-22.115-.438-.379-.688-.931-.688-1.51v-21.957c0-19.604 15.949-35.554 35.554-35.554h48.596c19.604 0 35.554 15.949 35.554 35.554v21.957c0 .579-.251 1.13-.688 1.51-16.422 14.261-37.434 22.115-59.165 22.115zm-55.852-24.543c15.589 13.254 35.387 20.543 55.852 20.543s40.263-7.289 55.852-20.543v-21.038c0-17.399-14.155-31.554-31.554-31.554h-48.596c-17.398 0-31.554 14.155-31.554 31.554zm113.704.918h.01z"/><path d="m128 254c-49.789 0-90.296-40.506-90.296-90.295v-71.41c0-49.789 40.507-90.295 90.296-90.295s90.296 40.506 90.296 90.295v71.409c0 49.79-40.507 90.296-90.296 90.296zm0-248c-47.584 0-86.296 38.712-86.296 86.295v71.409c0 47.584 38.712 86.296 86.296 86.296s86.296-38.712 86.296-86.295v-71.41c0-47.583-38.712-86.295-86.296-86.295z"/><path d="m49.704 115.071c-1.104 0-2-.896-2-2v-12c0-1.104.896-2 2-2s2 .896 2 2v12c0 1.104-.895 2-2 2z"/></g></svg>