<?xml version="1.0"?>
<svg xmlns="http://www.w3.org/2000/svg" viewBox="0 0 64 64" width="512" height="512"><g id="Target"><circle cx="32" cy="32" r="24" style="fill:#3d9ae2"/><circle cx="32" cy="32" r="14" style="fill:#e0e0e2"/><circle cx="32" cy="32" r="4" style="fill:#ed1c24"/><path d="M62,31H56.975A25.028,25.028,0,0,0,33,7.025V2a1,1,0,0,0-2,0V7.025A25.028,25.028,0,0,0,7.025,31H6a1,1,0,0,0,0,2H7.025A25.028,25.028,0,0,0,31,56.975V62a1,1,0,0,0,2,0V56.975A25.028,25.028,0,0,0,56.975,33H62a1,1,0,0,0,0-2Zm-7.025,0H47c-.018,0-.033.009-.05.01A15,15,0,0,0,32.99,17.05c0-.017.01-.032.01-.05V9.025A23.027,23.027,0,0,1,54.975,31ZM32,45A13,13,0,1,1,45,32,13.015,13.015,0,0,1,32,45ZM31,9.025V17c0,.018.009.033.01.05A15,15,0,0,0,17.05,31.01c-.017,0-.032-.01-.05-.01H9.025A23.027,23.027,0,0,1,31,9.025ZM9.025,33H17c.018,0,.033-.009.05-.01A15,15,0,0,0,31.01,46.95c0,.017-.01.032-.01.05v7.975A23.027,23.027,0,0,1,9.025,33ZM33,54.975V47c0-.018-.009-.033-.01-.05A15,15,0,0,0,46.95,32.99c.017,0,.032.01.05.01h7.975A23.027,23.027,0,0,1,33,54.975Z"/><path d="M3,31H2a1,1,0,0,0,0,2H3a1,1,0,0,0,0-2Z"/><path d="M32,27a5,5,0,1,0,5,5A5.006,5.006,0,0,0,32,27Zm0,8a3,3,0,1,1,3-3A3,3,0,0,1,32,35Z"/></g></svg>
